<svg xmlns="http://www.w3.org/2000/svg" xmlns:xlink="http://www.w3.org/1999/xlink" width="1080" zoomAndPan="magnify" viewBox="0 0 810 809.999993" height="1080" preserveAspectRatio="xMidYMid meet" version="1.0"><defs><clipPath id="d2f189992b"><path d="M 324.40625 324 L 485.65625 324 L 485.65625 486 L 324.40625 486 Z M 324.40625 324 " clip-rule="nonzero"/></clipPath></defs><g clip-path="url(#d2f189992b)"><path fill="#eac607" d="M 485.523438 330.640625 L 485.523438 364.984375 C 485.523438 368.648438 482.542969 371.5625 478.914062 371.5625 C 475.253906 371.5625 472.273438 368.582031 472.273438 364.921875 L 472.207031 346.453125 L 454.257812 364.402344 C 467.867188 382.546875 466.441406 408.371094 449.949219 424.828125 C 431.902344 442.875 402.644531 442.941406 384.597656 424.859375 C 368.171875 408.433594 366.683594 382.742188 380.09375 364.660156 C 384.371094 366.121094 388.226562 368.550781 391.402344 371.757812 C 381.164062 384.71875 382.007812 403.605469 393.960938 415.5625 C 406.824219 428.425781 427.789062 428.425781 440.683594 415.5625 C 453.578125 402.699219 453.546875 381.738281 440.683594 368.839844 C 432.226562 360.386719 420.304688 357.46875 409.449219 360.125 C 406.210938 356.207031 402.386719 352.804688 398.140625 350.050781 C 413.273438 343.246094 431.351562 344.960938 444.929688 355.105469 L 462.878906 337.15625 L 444.507812 337.1875 C 440.84375 337.1875 437.929688 334.269531 437.929688 330.640625 C 437.929688 326.980469 440.941406 324 444.605469 324 L 478.949219 324 C 479.53125 324 480.082031 324.097656 480.601562 324.226562 C 480.828125 324.292969 481.019531 324.390625 481.214844 324.453125 C 481.605469 324.617188 481.992188 324.777344 482.382812 325.003906 C 482.480469 325.070312 482.578125 325.101562 482.640625 325.167969 C 482.804688 325.296875 482.996094 325.425781 483.160156 325.554688 C 484.585938 326.785156 485.523438 328.601562 485.523438 330.640625 Z M 437.929688 330.675781 Z M 387.96875 453.015625 L 377.246094 453.015625 L 377.246094 437.984375 C 381.84375 437.367188 385.925781 436.105469 389.847656 434.320312 C 386.964844 432.441406 384.273438 430.238281 381.78125 427.746094 C 380.679688 426.644531 379.640625 425.476562 378.636719 424.277344 C 376.109375 424.894531 373.484375 425.21875 370.765625 425.21875 C 352.554688 425.21875 337.75 410.410156 337.75 392.203125 C 337.75 373.992188 352.585938 359.1875 370.796875 359.1875 C 389.003906 359.1875 403.8125 373.992188 403.8125 392.203125 C 403.8125 399.945312 401.15625 407.042969 396.683594 412.679688 C 396.714844 412.710938 396.75 412.742188 396.78125 412.777344 C 399.957031 415.953125 403.78125 418.316406 407.925781 419.742188 C 413.628906 412.0625 417 402.503906 417 392.203125 C 417 366.671875 396.296875 345.96875 370.765625 345.96875 C 345.265625 345.96875 324.464844 366.671875 324.464844 392.203125 C 324.464844 415.496094 341.605469 434.777344 363.992188 437.984375 L 363.992188 453.015625 L 353.625 453.015625 C 349.964844 453.015625 347.015625 455.933594 347.015625 459.59375 C 347.015625 463.253906 349.996094 466.234375 353.625 466.234375 L 363.992188 466.234375 L 363.992188 479.390625 C 363.992188 483.050781 366.941406 486 370.601562 486 C 374.261719 486 377.210938 483.050781 377.210938 479.390625 L 377.210938 466.234375 L 387.96875 466.234375 C 391.628906 466.234375 394.578125 463.253906 394.578125 459.625 C 394.578125 455.964844 391.628906 453.015625 387.96875 453.015625 Z M 387.96875 453.015625 " fill-opacity="1" fill-rule="nonzero"/></g></svg>