<svg xmlns="http://www.w3.org/2000/svg" xmlns:xlink="http://www.w3.org/1999/xlink" width="1080" zoomAndPan="magnify" viewBox="0 0 810 809.999993" height="1080" preserveAspectRatio="xMidYMid meet" version="1.0"><defs><clipPath id="309ce7dfce"><path d="M 404 318.621094 L 446 318.621094 L 446 360 L 404 360 Z M 404 318.621094 " clip-rule="nonzero"/></clipPath><clipPath id="a4ef6aa1f8"><path d="M 318.621094 439 L 362 439 L 362 491.121094 L 318.621094 491.121094 Z M 318.621094 439 " clip-rule="nonzero"/></clipPath><clipPath id="94dbc7c906"><path d="M 364 360 L 491.121094 360 L 491.121094 491.121094 L 364 491.121094 Z M 364 360 " clip-rule="nonzero"/></clipPath></defs><g clip-path="url(#309ce7dfce)"><path fill="#eac607" d="M 424.785156 359.511719 C 436.058594 359.511719 445.234375 350.339844 445.234375 339.066406 C 445.234375 327.792969 436.058594 318.621094 424.785156 318.621094 C 413.507812 318.621094 404.332031 327.792969 404.332031 339.066406 C 404.332031 350.339844 413.507812 359.511719 424.785156 359.511719 Z M 424.785156 321.707031 C 434.359375 321.707031 442.148438 329.496094 442.148438 339.066406 C 442.148438 348.636719 434.359375 356.425781 424.785156 356.425781 C 415.207031 356.425781 407.417969 348.636719 407.417969 339.066406 C 407.417969 329.496094 415.207031 321.707031 424.785156 321.707031 Z M 424.785156 321.707031 " fill-opacity="1" fill-rule="nonzero"/></g><g clip-path="url(#a4ef6aa1f8)"><path fill="#eac607" d="M 355.890625 477.054688 L 350.648438 477.054688 C 356.460938 473.441406 360.351562 467.023438 360.351562 459.695312 C 360.351562 448.421875 351.175781 439.25 339.898438 439.25 C 328.625 439.25 319.449219 448.421875 319.449219 459.695312 C 319.449219 467.023438 323.339844 473.441406 329.152344 477.054688 L 323.910156 477.054688 C 320.996094 477.054688 318.621094 479.425781 318.621094 482.339844 L 318.621094 486.082031 C 318.621094 488.996094 320.996094 491.367188 323.910156 491.367188 L 355.890625 491.367188 C 358.804688 491.367188 361.179688 488.996094 361.179688 486.082031 L 361.179688 482.339844 C 361.179688 479.425781 358.804688 477.054688 355.890625 477.054688 Z M 322.535156 459.695312 C 322.535156 450.121094 330.324219 442.335938 339.898438 442.335938 C 349.476562 442.335938 357.265625 450.121094 357.265625 459.695312 C 357.265625 469.265625 349.476562 477.054688 339.898438 477.054688 C 330.324219 477.054688 322.535156 469.265625 322.535156 459.695312 Z M 358.09375 486.082031 C 358.09375 487.296875 357.105469 488.285156 355.890625 488.285156 L 323.910156 488.285156 C 322.695312 488.285156 321.707031 487.296875 321.707031 486.082031 L 321.707031 482.339844 C 321.707031 481.125 322.695312 480.136719 323.910156 480.136719 L 355.890625 480.136719 C 357.105469 480.136719 358.09375 481.125 358.09375 482.339844 Z M 358.09375 486.082031 " fill-opacity="1" fill-rule="nonzero"/></g><g clip-path="url(#94dbc7c906)"><path fill="#eac607" d="M 480.65625 469.949219 L 447.144531 469.953125 C 447.003906 466.976562 446.242188 464.015625 444.777344 461.261719 L 432.21875 437.714844 L 438.855469 437.714844 L 438.855469 439.097656 C 438.855469 439.949219 439.542969 440.640625 440.394531 440.640625 L 456.207031 440.640625 C 457.058594 440.640625 457.746094 439.949219 457.746094 439.097656 L 457.746094 437.710938 L 470.3125 437.710938 C 476.21875 437.710938 481.023438 432.90625 481.023438 427 C 481.023438 421.097656 476.21875 416.292969 470.3125 416.292969 L 456.332031 416.296875 C 456.335938 416.25 456.359375 416.210938 456.359375 416.164062 L 456.359375 367.484375 C 456.359375 363.488281 453.105469 360.238281 449.105469 360.238281 L 438.117188 360.238281 C 437.757812 360.238281 437.402344 360.363281 437.125 360.597656 L 424.753906 371.015625 L 412.378906 360.597656 C 412.101562 360.363281 411.75 360.238281 411.386719 360.238281 L 403.039062 360.238281 C 399.921875 360.308594 397.351562 361.554688 395.796875 363.753906 L 375.402344 392.550781 C 373.328125 395.480469 373.359375 399.394531 375.484375 402.289062 L 396.605469 431.085938 C 398.167969 433.21875 400.679688 434.492188 403.332031 434.492188 C 404.246094 434.492188 405.128906 434.304688 405.972656 434.019531 L 425.128906 469.945312 L 413.253906 469.945312 L 407.1875 452.757812 C 406.449219 450.628906 404.820312 448.945312 402.722656 448.128906 C 400.625 447.316406 398.277344 447.46875 396.28125 448.554688 C 393.039062 450.3125 391.5625 454.417969 392.839844 458.109375 L 396.953125 469.945312 L 374.882812 469.945312 C 368.976562 469.945312 364.171875 474.746094 364.171875 480.652344 C 364.171875 486.554688 368.976562 491.359375 374.882812 491.359375 L 426.695312 491.359375 L 426.695312 491.367188 L 480.65625 491.363281 C 486.5625 491.363281 491.367188 486.5625 491.367188 480.65625 C 491.367188 474.75 486.5625 469.949219 480.65625 469.949219 Z M 454.664062 436.992188 L 454.664062 437.554688 L 441.9375 437.554688 L 441.9375 436.992188 C 441.9375 433.484375 444.792969 430.628906 448.300781 430.628906 C 451.808594 430.628906 454.664062 433.484375 454.664062 436.992188 Z M 444.007812 408.535156 L 444.007812 379.636719 C 444.007812 378.785156 443.320312 378.097656 442.46875 378.097656 C 441.613281 378.097656 440.925781 378.785156 440.925781 379.636719 L 440.925781 416.164062 C 440.925781 416.210938 440.949219 416.25 440.953125 416.296875 L 414.371094 416.296875 C 412.046875 416.296875 409.808594 417.070312 407.980469 418.421875 L 392.472656 397.277344 L 404.335938 380.53125 C 404.335938 380.527344 404.335938 380.527344 404.335938 380.527344 C 404.824219 379.832031 404.660156 378.871094 403.964844 378.378906 C 403.269531 377.890625 402.308594 378.050781 401.816406 378.746094 L 389.3125 396.402344 C 388.929688 396.945312 388.9375 397.671875 389.328125 398.207031 L 407.355469 422.78125 C 408.964844 424.980469 408.871094 427.988281 407.132812 429.777344 C 404.921875 432.054688 400.917969 431.757812 399.09375 429.261719 L 377.972656 400.464844 C 376.632812 398.640625 376.613281 396.179688 377.921875 394.332031 L 398.3125 365.535156 C 399.628906 363.671875 401.882812 363.347656 403.074219 363.320312 L 410.824219 363.320312 L 423.761719 374.210938 C 424.332031 374.695312 425.171875 374.695312 425.75 374.210938 L 438.683594 363.320312 L 449.105469 363.320312 C 451.402344 363.320312 453.273438 365.1875 453.273438 367.484375 L 453.273438 416.164062 C 453.273438 416.210938 453.296875 416.25 453.300781 416.296875 L 443.984375 416.296875 C 443.988281 416.25 444.007812 416.210938 444.007812 416.164062 Z M 426.707031 473.027344 C 427.707031 473.027344 428.253906 472.46875 428.542969 471.988281 C 428.824219 471.511719 429.0625 470.761719 428.59375 469.886719 L 408.660156 432.503906 C 408.890625 432.3125 409.132812 432.144531 409.34375 431.929688 C 412.121094 429.074219 412.332031 424.355469 409.84375 420.957031 L 409.839844 420.957031 C 411.144531 419.984375 412.707031 419.382812 414.371094 419.382812 L 470.3125 419.378906 C 474.519531 419.378906 477.9375 422.796875 477.9375 427 C 477.9375 431.207031 474.519531 434.625 470.3125 434.625 L 457.410156 434.625 C 456.351562 430.566406 452.6875 427.546875 448.300781 427.546875 C 443.914062 427.546875 440.246094 430.566406 439.191406 434.628906 L 429.648438 434.628906 C 429.105469 434.628906 428.605469 434.914062 428.324219 435.378906 C 428.046875 435.84375 428.03125 436.417969 428.285156 436.898438 L 442.054688 462.714844 C 444.953125 468.15625 444.789062 474.554688 441.617188 479.839844 C 438.445312 485.121094 432.871094 488.273438 426.707031 488.273438 L 412.433594 488.273438 C 415.527344 484.324219 416.453125 479.007812 414.75 474.183594 L 414.34375 473.027344 Z M 367.257812 480.652344 C 367.257812 476.449219 370.675781 473.027344 374.882812 473.027344 L 398.023438 473.027344 L 399.949219 478.5625 L 387.007812 478.582031 C 386.15625 478.582031 385.46875 479.273438 385.46875 480.125 C 385.46875 480.980469 386.160156 481.667969 387.011719 481.667969 L 402.117188 481.644531 C 402.617188 481.644531 403.085938 481.402344 403.375 480.996094 C 403.664062 480.589844 403.734375 480.070312 403.570312 479.597656 L 395.753906 457.097656 C 394.964844 454.820312 395.824219 452.3125 397.75 451.265625 C 398.972656 450.605469 400.34375 450.515625 401.605469 451.007812 C 402.859375 451.492188 403.835938 452.5 404.277344 453.777344 L 411.839844 475.210938 C 413.386719 479.585938 412.203125 484.472656 408.832031 487.664062 L 408.1875 488.273438 L 374.882812 488.273438 C 370.675781 488.273438 367.257812 484.855469 367.257812 480.652344 Z M 480.65625 488.277344 L 437.558594 488.28125 C 437.898438 488.070312 438.21875 487.828125 438.542969 487.589844 L 438.539062 487.589844 C 440.804688 485.980469 442.765625 483.914062 444.261719 481.425781 C 445.808594 478.851562 446.710938 476.046875 447.039062 473.199219 L 447.058594 473.195312 C 447.066406 473.144531 447.078125 473.089844 447.085938 473.039062 L 480.65625 473.03125 C 484.863281 473.03125 488.285156 476.453125 488.285156 480.65625 C 488.285156 484.859375 484.863281 488.277344 480.65625 488.277344 Z M 480.65625 488.277344 " fill-opacity="1" fill-rule="nonzero"/></g></svg>