<svg xmlns="http://www.w3.org/2000/svg" xmlns:xlink="http://www.w3.org/1999/xlink" width="1080" zoomAndPan="magnify" viewBox="0 0 810 809.999993" height="1080" preserveAspectRatio="xMidYMid meet" version="1.0"><defs><clipPath id="57a96273b9"><path d="M 324 329 L 486 329 L 486 481.007812 L 324 481.007812 Z M 324 329 " clip-rule="nonzero"/></clipPath><clipPath id="28284379c7"><path d="M 396 455 L 414 455 L 414 481.007812 L 396 481.007812 Z M 396 455 " clip-rule="nonzero"/></clipPath></defs><g clip-path="url(#57a96273b9)"><path fill="#eac607" d="M 456.878906 335.71875 C 447.636719 335.71875 440.796875 337.433594 433.558594 339.253906 C 432.765625 339.453125 431.96875 339.652344 431.167969 339.851562 C 424.546875 333.6875 416.140625 330.007812 407.328125 329.464844 C 396.816406 328.8125 386.484375 332.582031 378.730469 339.828125 C 377.964844 339.636719 377.199219 339.445312 376.441406 339.253906 C 369.203125 337.433594 362.363281 335.71875 353.121094 335.71875 C 333.808594 335.71875 324.019531 343.382812 324.019531 358.492188 C 324.019531 370.960938 333.898438 376.972656 336.597656 378.378906 C 339.109375 381.726562 343.308594 383.925781 348.058594 383.925781 C 355.734375 383.925781 361.980469 378.195312 361.980469 371.148438 C 361.980469 364.101562 355.734375 358.367188 348.058594 358.367188 C 344.539062 358.367188 341.328125 359.585938 338.871094 361.574219 C 338.027344 359.828125 338.003906 357.90625 338.886719 356.042969 C 340.199219 353.269531 343.984375 350.253906 350.339844 350.890625 C 351.875 351.042969 360.351562 352.0625 368.464844 356.335938 C 367.535156 359.507812 367.039062 362.773438 367.039062 366.085938 C 367.039062 371.566406 368.21875 376.835938 370.550781 381.757812 C 374.222656 389.515625 375.433594 398.5 374.050781 407.730469 L 373.191406 413.460938 C 371.589844 424.132812 374.234375 434.796875 380.636719 443.484375 L 388.550781 454.226562 L 388.550781 478.699219 C 388.550781 480.097656 389.683594 481.230469 391.082031 481.230469 C 392.476562 481.230469 393.613281 480.097656 393.613281 478.699219 L 393.613281 453.394531 C 393.613281 452.855469 393.4375 452.328125 393.117188 451.890625 L 384.710938 440.484375 C 379.109375 432.878906 376.796875 423.550781 378.195312 414.210938 L 379.054688 408.480469 C 380.589844 398.253906 379.230469 388.261719 375.125 379.589844 C 373.117188 375.351562 372.101562 370.808594 372.101562 366.085938 C 372.101562 363.722656 372.402344 361.390625 372.957031 359.101562 C 377.183594 362.15625 380.886719 366.316406 382.875 371.984375 C 383.238281 373.027344 384.21875 373.679688 385.261719 373.679688 C 385.539062 373.679688 385.824219 373.632812 386.101562 373.535156 C 387.417969 373.074219 388.113281 371.628906 387.648438 370.308594 C 384.996094 362.742188 379.570312 357.164062 373.175781 353.226562 C 372.980469 353.054688 372.753906 352.917969 372.503906 352.808594 C 365.617188 348.738281 357.6875 346.539062 350.84375 345.851562 C 343.460938 345.117188 336.96875 348.265625 334.3125 353.878906 C 332.4375 357.835938 332.910156 362.214844 335.480469 365.71875 C 334.742188 367.152344 334.289062 368.730469 334.183594 370.398438 C 331.625 367.875 329.078125 363.992188 329.078125 358.492188 C 329.078125 350.890625 331.570312 340.78125 353.121094 340.78125 C 361.738281 340.78125 368.28125 342.421875 375.207031 344.164062 C 383.058594 346.136719 391.957031 348.371094 405 348.371094 C 418.042969 348.371094 426.941406 346.136719 434.792969 344.164062 C 441.71875 342.421875 448.261719 340.78125 456.878906 340.78125 C 478.429688 340.78125 480.921875 350.890625 480.921875 358.492188 C 480.921875 363.992188 478.375 367.875 475.816406 370.398438 C 475.710938 368.730469 475.257812 367.152344 474.519531 365.71875 C 477.089844 362.214844 477.5625 357.835938 475.6875 353.878906 C 473.03125 348.265625 466.539062 345.117188 459.15625 345.851562 C 452.3125 346.539062 444.378906 348.742188 437.488281 352.8125 C 437.238281 352.921875 437.007812 353.0625 436.8125 353.238281 C 430.417969 357.171875 425 362.75 422.347656 370.308594 C 421.886719 371.628906 422.582031 373.074219 423.898438 373.535156 C 424.175781 373.632812 424.460938 373.679688 424.738281 373.679688 C 425.78125 373.679688 426.761719 373.027344 427.125 371.984375 C 429.113281 366.320312 432.816406 362.160156 437.039062 359.105469 C 437.507812 361 437.800781 362.921875 437.875 364.859375 C 438.0625 369.886719 437.109375 374.726562 435.03125 379.25 C 430.855469 388.355469 429.390625 398.136719 430.800781 407.539062 L 431.800781 414.210938 C 432.375 418.023438 432.316406 421.832031 431.679688 425.523438 C 422.671875 423.261719 414.023438 418.183594 407.25 411.628906 C 414.738281 404.277344 421.449219 394.65625 421.449219 383.800781 C 421.449219 369.75 415.148438 361.023438 405 361.023438 C 395.007812 361.023438 388.550781 369.964844 388.550781 383.800781 C 388.550781 393.46875 392.972656 403.214844 399.988281 411.378906 C 392.382812 417.925781 384.972656 421.980469 384.820312 422.0625 C 383.589844 422.726562 383.128906 424.261719 383.792969 425.492188 C 384.457031 426.722656 385.992188 427.179688 387.21875 426.519531 C 387.878906 426.164062 395.5625 421.964844 403.476562 415.105469 C 410.902344 422.378906 420.425781 427.960938 430.457031 430.453125 C 429.292969 434.003906 427.570312 437.386719 425.289062 440.484375 L 416.882812 451.890625 C 416.5625 452.328125 416.386719 452.855469 416.386719 453.394531 L 416.386719 478.699219 C 416.386719 480.097656 417.523438 481.230469 418.917969 481.230469 C 420.316406 481.230469 421.449219 480.097656 421.449219 478.699219 L 421.449219 454.226562 L 429.363281 443.484375 C 432.097656 439.773438 434.140625 435.703125 435.464844 431.425781 C 437.535156 431.714844 439.617188 431.882812 441.695312 431.882812 C 456.636719 431.882812 461.941406 422.339844 461.941406 414.167969 C 461.941406 412.773438 460.804688 411.636719 459.410156 411.636719 C 458.011719 411.636719 456.878906 412.773438 456.878906 414.167969 C 456.878906 417.136719 455.785156 426.820312 441.695312 426.820312 C 440.019531 426.820312 438.332031 426.699219 436.652344 426.480469 C 437.394531 422.230469 437.46875 417.847656 436.808594 413.460938 L 435.808594 406.785156 C 434.542969 398.359375 435.867188 389.570312 439.632812 381.359375 C 442.042969 376.109375 443.15625 370.496094 442.933594 364.667969 C 442.828125 361.851562 442.347656 359.058594 441.535156 356.335938 C 449.648438 352.0625 458.125 351.042969 459.660156 350.890625 C 466.015625 350.253906 469.800781 353.269531 471.113281 356.042969 C 471.996094 357.90625 471.972656 359.828125 471.128906 361.574219 C 468.671875 359.585938 465.460938 358.367188 461.941406 358.367188 C 454.265625 358.367188 448.019531 364.101562 448.019531 371.148438 C 448.019531 378.195312 454.265625 383.925781 461.941406 383.925781 C 466.691406 383.925781 470.890625 381.726562 473.402344 378.378906 C 476.101562 376.972656 485.980469 370.960938 485.980469 358.492188 C 485.980469 343.382812 476.191406 335.71875 456.878906 335.71875 Z M 348.058594 363.429688 C 352.945312 363.429688 356.917969 366.890625 356.917969 371.148438 C 356.917969 375.402344 352.945312 378.867188 348.058594 378.867188 C 343.175781 378.867188 339.203125 375.402344 339.203125 371.148438 C 339.203125 366.890625 343.175781 363.429688 348.058594 363.429688 Z M 384.890625 341.246094 C 391.234375 336.453125 399.066406 334.023438 407.015625 334.515625 C 413.390625 334.910156 419.726562 337.324219 424.984375 341.273438 C 419.382812 342.433594 413.085938 343.308594 405 343.308594 C 396.855469 343.308594 390.527344 342.421875 384.890625 341.246094 Z M 393.613281 383.800781 C 393.613281 375.238281 396.601562 366.085938 405 366.085938 C 415.277344 366.085938 416.386719 378.476562 416.386719 383.800781 C 416.386719 392.933594 410.46875 401.332031 403.757812 407.917969 C 397.546875 400.675781 393.613281 392.140625 393.613281 383.800781 Z M 461.941406 378.867188 C 457.054688 378.867188 453.082031 375.402344 453.082031 371.148438 C 453.082031 366.890625 457.054688 363.429688 461.941406 363.429688 C 466.824219 363.429688 470.796875 366.890625 470.796875 371.148438 C 470.796875 372.566406 470.347656 373.890625 469.578125 375.035156 C 469.574219 375.046875 469.5625 375.058594 469.554688 375.070312 C 468.011719 377.335938 465.179688 378.867188 461.941406 378.867188 Z M 461.941406 378.867188 " fill-opacity="1" fill-rule="nonzero"/></g><path fill="#eac607" d="M 417.652344 440.261719 C 417.652344 437.707031 418.132812 435.210938 419.078125 432.839844 C 419.59375 431.542969 418.964844 430.070312 417.664062 429.550781 C 416.367188 429.035156 414.894531 429.667969 414.378906 430.964844 C 413.191406 433.9375 412.59375 437.0625 412.59375 440.261719 C 412.59375 442.617188 410.671875 444.535156 408.316406 444.535156 L 401.683594 444.535156 C 399.328125 444.535156 397.40625 442.617188 397.40625 440.261719 C 397.40625 437.046875 396.800781 433.902344 395.605469 430.921875 C 395.085938 429.625 393.613281 428.992188 392.3125 429.511719 C 391.015625 430.035156 390.386719 431.507812 390.90625 432.804688 C 391.863281 435.1875 392.347656 437.695312 392.347656 440.261719 C 392.347656 445.410156 396.535156 449.597656 401.683594 449.597656 L 408.316406 449.597656 C 413.464844 449.597656 417.652344 445.410156 417.652344 440.261719 Z M 417.652344 440.261719 " fill-opacity="1" fill-rule="nonzero"/><g clip-path="url(#28284379c7)"><path fill="#eac607" d="M 411.328125 481.230469 C 412.722656 481.230469 413.855469 480.097656 413.855469 478.699219 L 413.855469 458.457031 C 413.855469 457.058594 412.722656 455.925781 411.328125 455.925781 L 398.671875 455.925781 C 397.277344 455.925781 396.144531 457.058594 396.144531 458.457031 L 396.144531 478.699219 C 396.144531 480.097656 397.277344 481.230469 398.671875 481.230469 C 400.070312 481.230469 401.203125 480.097656 401.203125 478.699219 L 401.203125 460.984375 L 408.796875 460.984375 L 408.796875 478.699219 C 408.796875 480.097656 409.929688 481.230469 411.328125 481.230469 Z M 411.328125 481.230469 " fill-opacity="1" fill-rule="nonzero"/></g></svg>