<svg xmlns="http://www.w3.org/2000/svg" xmlns:xlink="http://www.w3.org/1999/xlink" width="1080" zoomAndPan="magnify" viewBox="0 0 810 809.999993" height="1080" preserveAspectRatio="xMidYMid meet" version="1.0"><defs><clipPath id="2b931b39cf"><path d="M 308.121094 308.121094 L 501.621094 308.121094 L 501.621094 501.621094 L 308.121094 501.621094 Z M 308.121094 308.121094 " clip-rule="nonzero"/></clipPath></defs><g clip-path="url(#2b931b39cf)"><path fill="#eac607" d="M 465.984375 398.4375 L 465.984375 377.925781 C 465.984375 370.898438 460.265625 365.179688 453.242188 365.179688 L 445.59375 365.179688 C 444.71875 365.179688 443.910156 365.65625 443.488281 366.417969 C 442.28125 368.589844 438.339844 370.925781 432.542969 370.925781 C 426.746094 370.925781 422.800781 368.589844 421.597656 366.417969 C 421.171875 365.65625 420.363281 365.179688 419.488281 365.179688 L 415.824219 365.179688 C 413.246094 365.179688 410.921875 366.144531 409.097656 367.96875 L 401.113281 375.949219 L 397.960938 374.121094 C 396.914062 373.515625 395.582031 373.777344 394.84375 374.734375 C 392.789062 377.386719 388.527344 379.101562 383.992188 379.101562 C 379.453125 379.101562 375.191406 377.390625 373.136719 374.734375 C 372.398438 373.777344 371.066406 373.519531 370.019531 374.121094 L 345.214844 388.484375 C 344.472656 388.914062 344.011719 389.710938 344.011719 390.570312 L 344.011719 420.0625 C 344.011719 423.484375 346.25 426.390625 349.339844 427.410156 L 349.339844 490.785156 L 346.695312 490.785156 C 345.363281 490.785156 344.28125 491.867188 344.28125 493.199219 L 344.28125 499.464844 C 344.28125 500.796875 345.363281 501.878906 346.695312 501.878906 L 356.808594 501.878906 C 358.136719 501.878906 359.21875 500.796875 359.21875 499.464844 L 359.21875 493.199219 C 359.21875 491.867188 358.136719 490.785156 356.808594 490.785156 L 354.164062 490.785156 L 354.164062 427.410156 C 357.25 426.390625 359.488281 423.484375 359.488281 420.0625 L 359.488281 399.25 L 362.242188 397.65625 L 362.242188 499.464844 C 362.242188 500.796875 363.324219 501.878906 364.65625 501.878906 L 380.527344 501.878906 C 381.859375 501.878906 382.941406 500.796875 382.941406 499.464844 L 382.941406 434.871094 L 385.046875 434.871094 L 385.046875 458.332031 C 385.046875 464.042969 389.691406 468.683594 395.398438 468.683594 C 401.105469 468.683594 405.75 464.042969 405.75 458.332031 L 405.75 397.652344 L 408.503906 399.246094 L 408.503906 420.0625 C 408.503906 421.847656 409.117188 423.488281 410.140625 424.800781 L 410.140625 488.480469 C 410.140625 489.808594 411.222656 490.890625 412.550781 490.890625 L 428.425781 490.890625 C 429.757812 490.890625 430.839844 489.808594 430.839844 488.480469 L 430.839844 428.230469 L 433.613281 428.230469 L 433.613281 499.464844 C 433.613281 500.796875 434.691406 501.878906 436.023438 501.878906 L 451.898438 501.878906 C 453.230469 501.878906 454.308594 500.796875 454.308594 499.464844 L 454.308594 411.578125 C 460.871094 410.808594 465.984375 405.210938 465.984375 398.4375 Z M 354.394531 497.054688 L 349.105469 497.054688 L 349.105469 495.609375 L 354.394531 495.609375 Z M 351.75 422.976562 C 350.144531 422.976562 348.835938 421.667969 348.835938 420.0625 L 348.835938 419.625 L 354.660156 419.625 L 354.660156 420.0625 C 354.664062 421.667969 353.359375 422.976562 351.75 422.976562 Z M 404.539062 391.382812 C 403.792969 390.953125 402.871094 390.949219 402.128906 391.378906 C 401.378906 391.808594 400.921875 392.605469 400.921875 393.46875 L 400.921875 458.328125 C 400.921875 461.375 398.441406 463.855469 395.394531 463.855469 C 392.347656 463.855469 389.867188 461.375 389.867188 458.328125 L 389.867188 432.453125 C 389.867188 431.125 388.785156 430.042969 387.457031 430.042969 L 380.523438 430.042969 C 379.195312 430.042969 378.113281 431.125 378.113281 432.453125 L 378.113281 497.054688 L 367.0625 497.054688 L 367.0625 393.46875 C 367.0625 392.609375 366.601562 391.808594 365.855469 391.378906 C 365.109375 390.949219 364.1875 390.949219 363.445312 391.382812 L 355.867188 395.769531 C 355.125 396.199219 354.664062 396.996094 354.664062 397.855469 L 354.664062 414.796875 L 348.839844 414.796875 L 348.839844 391.957031 L 370.78125 379.253906 C 373.945312 382.167969 378.808594 383.917969 384 383.917969 C 389.1875 383.917969 394.050781 382.167969 397.214844 379.253906 L 419.15625 391.957031 L 419.15625 396.9375 C 416.53125 398.175781 414.710938 400.839844 414.710938 403.933594 C 414.710938 407.058594 416.570312 409.824219 419.15625 411.027344 L 419.15625 420.054688 C 419.15625 421.664062 417.851562 422.972656 416.242188 422.972656 C 414.632812 422.972656 413.328125 421.664062 413.328125 420.054688 L 413.328125 397.851562 C 413.328125 396.992188 412.867188 396.195312 412.125 395.765625 Z M 438.425781 497.054688 L 438.425781 425.816406 C 438.425781 424.488281 437.347656 423.40625 436.015625 423.40625 L 428.417969 423.40625 C 427.085938 423.40625 426.007812 424.488281 426.007812 425.816406 L 426.007812 486.066406 L 414.957031 486.066406 L 414.957031 427.6875 C 415.375 427.753906 415.796875 427.804688 416.234375 427.804688 C 420.5 427.804688 423.972656 424.332031 423.972656 420.066406 L 423.972656 411.675781 L 449.476562 411.675781 L 449.476562 497.054688 Z M 461.160156 398.4375 C 461.160156 403.078125 457.386719 406.851562 452.746094 406.851562 L 422 406.851562 C 420.875 406.851562 419.523438 405.554688 419.523438 403.9375 C 419.523438 402.328125 420.828125 401.023438 422.4375 401.023438 L 451.890625 401.023438 C 453.21875 401.023438 454.300781 399.941406 454.300781 398.609375 L 454.300781 384.65625 C 454.300781 383.328125 453.21875 382.246094 451.890625 382.246094 C 450.558594 382.246094 449.476562 383.328125 449.476562 384.65625 L 449.476562 396.199219 L 423.972656 396.199219 L 423.972656 390.570312 C 423.972656 389.710938 423.515625 388.914062 422.769531 388.484375 L 414.980469 383.972656 L 417.765625 381.1875 C 418.707031 380.246094 418.707031 378.71875 417.765625 377.78125 C 416.824219 376.839844 415.296875 376.839844 414.351562 377.78125 L 410.65625 381.472656 L 405.441406 378.449219 L 412.511719 371.378906 C 413.4375 370.457031 414.515625 370.007812 415.824219 370.007812 L 418.203125 370.007812 C 420.953125 373.539062 426.382812 375.757812 432.542969 375.757812 C 438.699219 375.757812 444.132812 373.542969 446.882812 370.007812 L 453.242188 370.007812 C 457.605469 370.007812 461.160156 373.5625 461.160156 377.929688 Z M 367.152344 359.597656 C 367.152344 368.882812 374.703125 376.4375 383.992188 376.4375 C 393.277344 376.4375 400.828125 368.882812 400.828125 359.597656 C 400.828125 350.3125 393.277344 342.757812 383.992188 342.757812 C 374.703125 342.757812 367.152344 350.3125 367.152344 359.597656 Z M 396.007812 359.597656 C 396.007812 366.222656 390.617188 371.613281 383.996094 371.613281 C 377.371094 371.613281 371.980469 366.222656 371.980469 359.597656 C 371.980469 352.972656 377.371094 347.582031 383.996094 347.582031 C 390.617188 347.582031 396.007812 352.96875 396.007812 359.597656 Z M 432.542969 334.253906 C 423.257812 334.253906 415.703125 341.804688 415.703125 351.089844 C 415.703125 360.378906 423.257812 367.929688 432.542969 367.929688 C 441.828125 367.929688 449.382812 360.378906 449.382812 351.089844 C 449.382812 341.804688 441.828125 334.253906 432.542969 334.253906 Z M 432.542969 363.109375 C 425.917969 363.109375 420.527344 357.71875 420.527344 351.097656 C 420.527344 344.472656 425.917969 339.082031 432.542969 339.082031 C 439.167969 339.082031 444.558594 344.472656 444.558594 351.097656 C 444.558594 357.71875 439.167969 363.109375 432.542969 363.109375 Z M 312.941406 405 C 312.941406 428.859375 322.03125 451.480469 338.542969 468.695312 C 339.460938 469.65625 339.429688 471.183594 338.46875 472.105469 C 338.003906 472.554688 337.398438 472.777344 336.800781 472.777344 C 336.164062 472.777344 335.535156 472.527344 335.058594 472.035156 C 317.6875 453.914062 308.121094 430.105469 308.121094 405 C 308.121094 379.121094 318.195312 354.792969 336.496094 336.496094 C 354.792969 318.195312 379.121094 308.121094 405 308.121094 C 423.9375 308.121094 442.113281 313.527344 457.839844 323.789062 L 456.5 313.660156 C 456.328125 312.335938 457.257812 311.125 458.574219 310.953125 C 459.898438 310.78125 461.109375 311.710938 461.28125 313.027344 L 463.332031 328.554688 C 463.503906 329.878906 462.574219 331.089844 461.257812 331.261719 L 445.726562 333.3125 C 445.617188 333.328125 445.515625 333.332031 445.410156 333.332031 C 444.21875 333.332031 443.183594 332.449219 443.023438 331.238281 C 442.847656 329.914062 443.777344 328.703125 445.097656 328.53125 L 454.386719 327.304688 C 439.636719 317.894531 422.667969 312.941406 405 312.941406 C 354.238281 312.941406 312.941406 354.238281 312.941406 405 Z M 501.878906 405 C 501.878906 433.113281 489.679688 459.804688 468.417969 478.230469 C 467.964844 478.625 467.402344 478.824219 466.839844 478.824219 C 466.164062 478.824219 465.492188 478.542969 465.015625 477.992188 C 464.140625 476.984375 464.25 475.460938 465.257812 474.589844 C 485.464844 457.074219 497.054688 431.710938 497.054688 405 C 497.054688 403.667969 498.132812 402.585938 499.464844 402.585938 C 500.796875 402.585938 501.878906 403.667969 501.878906 405 Z M 499.464844 342.304688 L 491.8125 342.304688 L 491.8125 334.652344 C 491.8125 333.320312 490.730469 332.238281 489.398438 332.238281 L 475.976562 332.238281 C 474.644531 332.238281 473.566406 333.320312 473.566406 334.652344 L 473.566406 342.304688 L 465.910156 342.304688 C 464.582031 342.304688 463.5 343.386719 463.5 344.714844 L 463.5 358.136719 C 463.5 359.46875 464.582031 360.550781 465.910156 360.550781 L 473.566406 360.550781 L 473.566406 368.203125 C 473.566406 369.535156 474.644531 370.617188 475.976562 370.617188 L 489.398438 370.617188 C 490.730469 370.617188 491.8125 369.535156 491.8125 368.203125 L 491.8125 360.550781 L 499.464844 360.550781 C 500.796875 360.550781 501.878906 359.46875 501.878906 358.136719 L 501.878906 344.714844 C 501.878906 343.386719 500.796875 342.304688 499.464844 342.304688 Z M 497.054688 355.726562 L 489.398438 355.726562 C 488.070312 355.726562 486.988281 356.808594 486.988281 358.136719 L 486.988281 365.792969 L 478.390625 365.792969 L 478.390625 358.136719 C 478.390625 356.808594 477.308594 355.726562 475.976562 355.726562 L 468.324219 355.726562 L 468.324219 347.128906 L 475.976562 347.128906 C 477.308594 347.128906 478.390625 346.046875 478.390625 344.714844 L 478.390625 337.0625 L 486.988281 337.0625 L 486.988281 344.714844 C 486.988281 346.046875 488.070312 347.128906 489.398438 347.128906 L 497.054688 347.128906 Z M 497.054688 355.726562 " fill-opacity="1" fill-rule="nonzero"/></g></svg>