<svg xmlns="http://www.w3.org/2000/svg" xmlns:xlink="http://www.w3.org/1999/xlink" width="1080" zoomAndPan="magnify" viewBox="0 0 810 809.999993" height="1080" preserveAspectRatio="xMidYMid meet" version="1.0"><defs><clipPath id="c6d62ff98e"><path d="M 292.996094 292.996094 L 517 292.996094 L 517 517 L 292.996094 517 Z M 292.996094 292.996094 " clip-rule="nonzero"/></clipPath></defs><path fill="#eac607" d="M 404.996094 424.644531 C 391.929688 424.644531 381.335938 413.535156 381.335938 399.910156 C 381.335938 386.28125 391.929688 375.175781 404.996094 375.175781 C 418.0625 375.175781 428.65625 386.28125 428.65625 399.910156 C 428.65625 413.582031 418.0625 424.644531 404.996094 424.644531 Z M 404.996094 378.535156 C 393.796875 378.535156 384.695312 388.101562 384.695312 399.910156 C 384.695312 411.71875 393.796875 421.285156 404.996094 421.285156 C 416.195312 421.285156 425.296875 411.71875 425.296875 399.910156 C 425.296875 388.101562 416.195312 378.535156 404.996094 378.535156 Z M 404.996094 378.535156 " fill-opacity="1" fill-rule="nonzero"/><path fill="#eac607" d="M 404.996094 436.402344 C 404.0625 436.402344 403.316406 435.65625 403.316406 434.722656 C 403.316406 433.789062 404.0625 433.042969 404.996094 433.042969 C 411.484375 433.042969 414.984375 427.351562 415.730469 425.949219 L 415.730469 420.210938 C 415.730469 419.277344 416.476562 418.53125 417.410156 418.53125 C 418.34375 418.53125 419.089844 419.277344 419.089844 420.210938 L 419.089844 426.324219 C 419.089844 426.558594 419.042969 426.789062 418.949219 427.023438 C 418.761719 427.398438 414.46875 436.402344 404.996094 436.402344 Z M 404.996094 436.402344 " fill-opacity="1" fill-rule="nonzero"/><path fill="#eac607" d="M 408.917969 463.84375 C 406.351562 463.84375 404.902344 463.566406 404.671875 463.519531 C 403.875 463.332031 403.316406 462.679688 403.316406 461.882812 L 403.316406 455.863281 C 403.316406 454.929688 404.0625 454.183594 404.996094 454.183594 C 405.929688 454.183594 406.675781 454.929688 406.675781 455.863281 L 406.675781 460.390625 C 408.449219 460.53125 411.949219 460.578125 416.664062 459.644531 C 423.152344 458.382812 433.324219 454.976562 444.992188 445.878906 C 445.738281 445.316406 446.765625 445.410156 447.324219 446.203125 C 447.882812 446.949219 447.789062 447.976562 446.996094 448.539062 C 429.871094 461.882812 415.683594 463.84375 408.917969 463.84375 Z M 408.917969 463.84375 " fill-opacity="1" fill-rule="nonzero"/><path fill="#eac607" d="M 440.511719 452.878906 C 439.671875 452.878906 438.925781 452.222656 438.832031 451.382812 C 438.832031 451.335938 438.222656 446.390625 435.144531 441.210938 C 431.128906 434.351562 424.832031 430.289062 416.476562 429.125 C 415.542969 428.984375 414.890625 428.144531 415.03125 427.210938 C 415.171875 426.277344 416.011719 425.625 416.945312 425.765625 C 428.703125 427.398438 434.957031 434.210938 438.085938 439.578125 C 441.492188 445.363281 442.097656 450.777344 442.097656 451.011719 C 442.191406 451.945312 441.539062 452.785156 440.605469 452.878906 C 440.652344 452.878906 440.558594 452.878906 440.511719 452.878906 Z M 440.511719 452.878906 " fill-opacity="1" fill-rule="nonzero"/><path fill="#eac607" d="M 446.671875 366.308594 L 409.664062 366.308594 C 408.917969 366.308594 408.21875 365.796875 408.03125 365.097656 C 407.84375 364.347656 408.125 363.601562 408.777344 363.230469 C 410.96875 361.875 412.324219 359.542969 412.324219 356.929688 C 412.324219 355.996094 413.070312 355.25 414.003906 355.25 L 446.671875 355.25 C 449.703125 355.25 452.222656 357.722656 452.222656 360.800781 C 452.222656 362.296875 451.617188 363.695312 450.589844 364.722656 C 449.5625 365.703125 448.164062 366.308594 446.671875 366.308594 Z M 413.863281 362.949219 L 446.71875 362.949219 C 447.324219 362.949219 447.835938 362.714844 448.257812 362.296875 C 448.675781 361.875 448.910156 361.363281 448.910156 360.757812 C 448.910156 359.542969 447.929688 358.5625 446.71875 358.5625 L 415.589844 358.5625 C 415.308594 360.148438 414.75 361.644531 413.863281 362.949219 Z M 413.863281 362.949219 " fill-opacity="1" fill-rule="nonzero"/><path fill="#eac607" d="M 448.910156 421.84375 C 434.351562 421.84375 430.617188 411.4375 430.476562 410.96875 C 430.289062 410.457031 430.382812 409.898438 430.710938 409.476562 C 431.039062 409.011719 431.503906 408.777344 432.0625 408.777344 L 447.230469 408.777344 L 447.230469 363.929688 C 447.230469 362.996094 447.976562 362.25 448.910156 362.25 C 449.84375 362.25 450.589844 362.996094 450.589844 363.929688 L 450.589844 410.457031 C 450.589844 411.390625 449.84375 412.136719 448.910156 412.136719 L 434.863281 412.136719 C 436.636719 414.703125 440.699219 418.484375 448.910156 418.484375 C 449.84375 418.484375 450.589844 419.230469 450.589844 420.164062 C 450.589844 421.097656 449.84375 421.84375 448.910156 421.84375 Z M 448.910156 421.84375 " fill-opacity="1" fill-rule="nonzero"/><path fill="#eac607" d="M 436.589844 412.136719 C 436.402344 412.136719 436.265625 412.089844 436.125 412.042969 C 435.238281 411.808594 434.722656 410.832031 435.003906 409.945312 L 447.324219 368.503906 C 447.558594 367.617188 448.539062 367.101562 449.425781 367.382812 C 450.3125 367.617188 450.824219 368.597656 450.542969 369.484375 L 438.222656 410.921875 C 437.992188 411.671875 437.289062 412.136719 436.589844 412.136719 Z M 436.589844 412.136719 " fill-opacity="1" fill-rule="nonzero"/><path fill="#eac607" d="M 448.910156 421.84375 C 447.976562 421.84375 447.230469 421.097656 447.230469 420.164062 C 447.230469 419.230469 447.976562 418.484375 448.910156 418.484375 C 457.125 418.484375 461.183594 414.65625 462.957031 412.136719 L 448.910156 412.136719 C 447.976562 412.136719 447.230469 411.390625 447.230469 410.457031 L 447.230469 363.929688 C 447.230469 362.996094 447.976562 362.25 448.910156 362.25 C 449.84375 362.25 450.589844 362.996094 450.589844 363.929688 L 450.589844 408.730469 L 465.757812 408.730469 C 466.269531 408.730469 466.832031 408.964844 467.109375 409.429688 C 467.4375 409.898438 467.484375 410.457031 467.34375 410.921875 C 467.203125 411.4375 463.472656 421.84375 448.910156 421.84375 Z M 448.910156 421.84375 " fill-opacity="1" fill-rule="nonzero"/><path fill="#eac607" d="M 461.230469 412.136719 C 460.484375 412.136719 459.832031 411.671875 459.644531 410.921875 L 447.324219 369.484375 C 447.089844 368.597656 447.558594 367.664062 448.445312 367.382812 C 449.332031 367.148438 450.265625 367.617188 450.542969 368.503906 L 462.863281 409.945312 C 463.097656 410.832031 462.632812 411.761719 461.746094 412.042969 C 461.511719 412.089844 461.371094 412.136719 461.230469 412.136719 Z M 461.230469 412.136719 " fill-opacity="1" fill-rule="nonzero"/><path fill="#eac607" d="M 404.996094 424.644531 C 391.929688 424.644531 381.335938 413.535156 381.335938 399.910156 C 381.335938 386.28125 391.929688 375.175781 404.996094 375.175781 C 418.0625 375.175781 428.65625 386.28125 428.65625 399.910156 C 428.65625 413.582031 418.0625 424.644531 404.996094 424.644531 Z M 404.996094 378.535156 C 393.796875 378.535156 384.695312 388.101562 384.695312 399.910156 C 384.695312 411.71875 393.796875 421.285156 404.996094 421.285156 C 416.195312 421.285156 425.296875 411.71875 425.296875 399.910156 C 425.296875 388.101562 416.195312 378.535156 404.996094 378.535156 Z M 404.996094 378.535156 " fill-opacity="1" fill-rule="nonzero"/><path fill="#eac607" d="M 404.996094 436.402344 C 395.523438 436.402344 391.230469 427.398438 391.089844 427.023438 C 390.996094 426.789062 390.949219 426.558594 390.949219 426.324219 L 390.949219 420.210938 C 390.949219 419.277344 391.695312 418.53125 392.628906 418.53125 C 393.5625 418.53125 394.308594 419.277344 394.308594 420.210938 L 394.308594 425.949219 C 395.054688 427.398438 398.464844 433.042969 405.042969 433.042969 C 405.976562 433.042969 406.722656 433.789062 406.722656 434.722656 C 406.722656 435.65625 405.929688 436.402344 404.996094 436.402344 Z M 404.996094 436.402344 " fill-opacity="1" fill-rule="nonzero"/><path fill="#eac607" d="M 401.078125 463.84375 C 394.308594 463.84375 380.121094 461.929688 362.902344 448.539062 C 362.15625 447.976562 362.015625 446.902344 362.574219 446.203125 C 363.136719 445.457031 364.210938 445.316406 364.910156 445.878906 C 383.714844 460.484375 398.742188 460.71875 403.222656 460.34375 L 403.222656 455.863281 C 403.222656 454.929688 403.96875 454.183594 404.902344 454.183594 C 405.835938 454.183594 406.582031 454.929688 406.582031 455.863281 L 406.582031 461.835938 C 406.582031 462.632812 406.023438 463.332031 405.230469 463.472656 C 405.089844 463.566406 403.644531 463.84375 401.078125 463.84375 Z M 401.078125 463.84375 " fill-opacity="1" fill-rule="nonzero"/><path fill="#eac607" d="M 369.484375 452.878906 C 369.4375 452.878906 369.390625 452.878906 369.296875 452.878906 C 368.363281 452.785156 367.710938 451.945312 367.804688 451.011719 C 367.847656 450.777344 368.457031 445.410156 371.816406 439.578125 C 374.988281 434.164062 381.195312 427.398438 392.957031 425.765625 C 393.890625 425.625 394.730469 426.277344 394.871094 427.210938 C 395.011719 428.144531 394.355469 428.984375 393.421875 429.125 C 385.070312 430.289062 378.816406 434.351562 374.757812 441.210938 C 371.675781 446.4375 371.117188 451.382812 371.070312 451.382812 C 371.070312 452.222656 370.324219 452.878906 369.484375 452.878906 Z M 369.484375 452.878906 " fill-opacity="1" fill-rule="nonzero"/><path fill="#eac607" d="M 400.328125 366.308594 L 363.324219 366.308594 C 361.828125 366.308594 360.429688 365.703125 359.402344 364.675781 C 358.375 363.648438 357.769531 362.25 357.769531 360.757812 C 357.769531 357.722656 360.242188 355.203125 363.324219 355.203125 L 395.988281 355.203125 C 396.921875 355.203125 397.671875 355.949219 397.671875 356.882812 C 397.671875 359.496094 398.976562 361.828125 401.214844 363.183594 C 401.871094 363.554688 402.148438 364.347656 401.964844 365.050781 C 401.777344 365.75 401.078125 366.308594 400.328125 366.308594 Z M 363.324219 358.5625 C 362.109375 358.5625 361.128906 359.542969 361.128906 360.757812 C 361.128906 361.363281 361.363281 361.875 361.78125 362.296875 C 362.203125 362.714844 362.714844 362.949219 363.324219 362.949219 L 396.175781 362.949219 C 395.289062 361.644531 394.683594 360.195312 394.449219 358.5625 C 394.449219 358.5625 363.324219 358.5625 363.324219 358.5625 Z M 363.324219 358.5625 " fill-opacity="1" fill-rule="nonzero"/><path fill="#eac607" d="M 361.082031 421.84375 C 360.148438 421.84375 359.402344 421.097656 359.402344 420.164062 C 359.402344 419.230469 360.148438 418.484375 361.082031 418.484375 C 369.296875 418.484375 373.355469 414.65625 375.128906 412.136719 L 361.082031 412.136719 C 360.148438 412.136719 359.402344 411.390625 359.402344 410.457031 L 359.402344 363.929688 C 359.402344 362.996094 360.148438 362.25 361.082031 362.25 C 362.015625 362.25 362.761719 362.996094 362.761719 363.929688 L 362.761719 408.730469 L 377.929688 408.730469 C 378.441406 408.730469 379.003906 408.964844 379.28125 409.429688 C 379.609375 409.898438 379.65625 410.457031 379.515625 410.921875 C 379.375 411.4375 375.644531 421.84375 361.082031 421.84375 Z M 361.082031 421.84375 " fill-opacity="1" fill-rule="nonzero"/><path fill="#eac607" d="M 373.402344 412.136719 C 372.65625 412.136719 372.003906 411.671875 371.816406 410.921875 L 359.496094 369.484375 C 359.261719 368.597656 359.730469 367.664062 360.617188 367.382812 C 361.503906 367.148438 362.4375 367.617188 362.714844 368.503906 L 375.035156 409.945312 C 375.269531 410.832031 374.804688 411.761719 373.917969 412.042969 C 373.730469 412.089844 373.589844 412.136719 373.402344 412.136719 Z M 373.402344 412.136719 " fill-opacity="1" fill-rule="nonzero"/><path fill="#eac607" d="M 361.082031 421.84375 C 346.523438 421.84375 342.789062 411.4375 342.648438 410.96875 C 342.460938 410.457031 342.554688 409.898438 342.882812 409.476562 C 343.210938 409.011719 343.675781 408.777344 344.234375 408.777344 L 359.402344 408.777344 L 359.402344 363.929688 C 359.402344 362.996094 360.148438 362.25 361.082031 362.25 C 362.015625 362.25 362.761719 362.996094 362.761719 363.929688 L 362.761719 410.457031 C 362.761719 411.390625 362.015625 412.136719 361.082031 412.136719 L 347.035156 412.136719 C 348.808594 414.703125 352.871094 418.484375 361.082031 418.484375 C 362.015625 418.484375 362.761719 419.230469 362.761719 420.164062 C 362.761719 421.097656 362.015625 421.84375 361.082031 421.84375 Z M 361.082031 421.84375 " fill-opacity="1" fill-rule="nonzero"/><path fill="#eac607" d="M 348.761719 412.136719 C 348.574219 412.136719 348.4375 412.089844 348.296875 412.042969 C 347.410156 411.808594 346.894531 410.832031 347.175781 409.945312 L 359.496094 368.503906 C 359.730469 367.617188 360.710938 367.101562 361.597656 367.382812 C 362.484375 367.617188 362.996094 368.597656 362.714844 369.484375 L 350.394531 410.921875 C 350.164062 411.671875 349.507812 412.136719 348.761719 412.136719 Z M 348.761719 412.136719 " fill-opacity="1" fill-rule="nonzero"/><path fill="#eac607" d="M 404.996094 367.570312 C 403.035156 367.570312 401.125 367.054688 399.441406 366.03125 C 396.175781 364.070312 394.261719 360.664062 394.261719 356.882812 C 394.261719 350.957031 399.070312 346.195312 404.949219 346.195312 C 410.875 346.195312 415.636719 351.003906 415.636719 356.882812 C 415.636719 360.664062 413.722656 364.070312 410.457031 366.03125 C 408.871094 367.054688 406.957031 367.570312 404.996094 367.570312 Z M 404.996094 349.507812 C 400.9375 349.507812 397.671875 352.824219 397.671875 356.835938 C 397.671875 359.449219 398.976562 361.78125 401.214844 363.136719 C 402.382812 363.835938 403.691406 364.210938 405.042969 364.210938 C 406.398438 364.210938 407.703125 363.835938 408.871094 363.136719 C 411.0625 361.78125 412.417969 359.449219 412.417969 356.835938 C 412.324219 352.824219 409.058594 349.507812 404.996094 349.507812 Z M 404.996094 349.507812 " fill-opacity="1" fill-rule="nonzero"/><path fill="#eac607" d="M 384.882812 406.257812 C 384.371094 406.257812 383.855469 406.023438 383.53125 405.605469 C 382.96875 404.855469 383.109375 403.832031 383.855469 403.269531 L 389.96875 398.601562 C 390.53125 398.136719 391.324219 398.136719 391.929688 398.558594 C 393.796875 399.769531 398.742188 402.523438 405.277344 401.496094 C 411.949219 400.421875 415.871094 396.128906 417.269531 394.308594 C 417.550781 393.9375 417.96875 393.703125 418.4375 393.65625 C 418.902344 393.609375 419.371094 393.75 419.742188 394.078125 L 428.144531 401.636719 C 428.84375 402.242188 428.890625 403.316406 428.238281 404.015625 C 427.628906 404.71875 426.558594 404.761719 425.855469 404.109375 L 418.761719 397.714844 C 416.570312 400.144531 412.277344 403.785156 405.789062 404.761719 C 399.117188 405.835938 393.796875 403.503906 391.089844 401.917969 L 385.863281 405.882812 C 385.582031 406.164062 385.210938 406.257812 384.882812 406.257812 Z M 384.882812 406.257812 " fill-opacity="1" fill-rule="nonzero"/><g clip-path="url(#c6d62ff98e)"><path fill="#eac607" d="M 404.996094 517 C 389.875 517 375.222656 514.058594 361.410156 508.179688 C 348.0625 502.53125 336.117188 494.457031 325.800781 484.191406 C 315.535156 473.925781 307.460938 461.929688 301.816406 448.585938 C 295.933594 434.769531 292.996094 420.117188 292.996094 404.996094 C 292.996094 389.875 295.933594 375.222656 301.816406 361.410156 C 307.460938 348.0625 315.535156 336.070312 325.800781 325.800781 C 336.070312 315.535156 348.0625 307.460938 361.410156 301.816406 C 375.222656 295.933594 389.875 292.996094 404.996094 292.996094 C 420.117188 292.996094 434.769531 295.933594 448.585938 301.816406 C 461.929688 307.460938 473.925781 315.535156 484.191406 325.800781 C 494.457031 336.070312 502.53125 348.0625 508.179688 361.410156 C 514.011719 375.222656 517 389.875 517 404.996094 C 517 420.117188 514.058594 434.769531 508.179688 448.585938 C 502.53125 461.929688 494.457031 473.878906 484.191406 484.191406 C 473.925781 494.457031 461.929688 502.53125 448.585938 508.179688 C 434.769531 514.058594 420.117188 517 404.996094 517 Z M 404.996094 296.542969 C 345.167969 296.542969 296.542969 345.167969 296.542969 404.996094 C 296.542969 464.824219 345.214844 513.453125 404.996094 513.453125 C 464.824219 513.453125 513.453125 464.777344 513.453125 404.996094 C 513.453125 345.167969 464.824219 296.542969 404.996094 296.542969 Z M 404.996094 296.542969 " fill-opacity="1" fill-rule="nonzero"/></g></svg>