<svg xmlns="http://www.w3.org/2000/svg" xmlns:xlink="http://www.w3.org/1999/xlink" width="1080" zoomAndPan="magnify" viewBox="0 0 810 809.999993" height="1080" preserveAspectRatio="xMidYMid meet" version="1.0"><defs><clipPath id="f7ee2cb9e3"><path d="M 327 308.640625 L 484 308.640625 L 484 501.390625 L 327 501.390625 Z M 327 308.640625 " clip-rule="nonzero"/></clipPath></defs><g clip-path="url(#f7ee2cb9e3)"><path fill="#eac607" d="M 483.851562 418.96875 C 482.269531 409.609375 477.542969 403.652344 473.75 398.863281 C 470.34375 394.570312 467.648438 391.171875 467.605469 386.480469 C 469.5625 362.527344 463.886719 342.582031 451.1875 328.789062 C 445.230469 322.316406 437.792969 317.320312 429.082031 313.941406 C 420.054688 310.4375 409.617188 308.660156 398.0625 308.660156 C 381.316406 308.660156 366.160156 313.507812 354.226562 322.679688 C 343.367188 331.027344 335.28125 342.75 330.84375 356.578125 C 326.109375 371.335938 325.878906 387.695312 330.191406 402.644531 C 334.691406 418.234375 343.71875 431.402344 356.34375 440.824219 C 357.257812 460.054688 351.984375 475.140625 348.109375 486.226562 C 346.441406 490.996094 345.125 494.761719 344.660156 497.871094 C 344.53125 498.738281 344.785156 499.625 345.359375 500.289062 C 345.933594 500.957031 346.769531 501.339844 347.648438 501.339844 L 430.347656 501.339844 C 432.015625 501.339844 433.367188 499.984375 433.367188 498.316406 C 433.367188 490.742188 430.890625 484.023438 428.902344 478.625 C 425.53125 469.488281 425.554688 467.75 429.046875 466.222656 C 431.042969 465.347656 437.066406 466.808594 441.90625 467.980469 C 450.980469 470.183594 460.363281 472.457031 464.675781 467.085938 C 464.960938 466.734375 465.160156 466.320312 465.265625 465.878906 C 467.425781 456.632812 469.460938 453.699219 470.808594 451.761719 C 472.003906 450.039062 473.132812 448.414062 473.132812 444.839844 C 473.132812 443.898438 472.691406 443.007812 471.941406 442.4375 C 469.949219 440.921875 468.535156 439.757812 467.707031 438.960938 C 468.953125 438.429688 470.816406 437.828125 471.574219 437.582031 C 472.816406 437.183594 473.660156 436.03125 473.667969 434.726562 L 473.734375 423.898438 L 481.433594 422.445312 C 483.050781 422.140625 484.128906 420.59375 483.851562 418.96875 Z M 470.164062 418.421875 C 468.742188 418.6875 467.710938 419.925781 467.703125 421.371094 L 467.636719 432.515625 C 464.195312 433.695312 461.46875 435.003906 460.996094 437.769531 C 460.496094 440.714844 462.863281 443.042969 466.96875 446.238281 C 466.808594 446.917969 466.476562 447.398438 465.84375 448.3125 C 464.277344 450.566406 461.933594 453.9375 459.578125 463.660156 C 457.070312 465.4375 448.863281 463.449219 443.332031 462.105469 C 436.4375 460.4375 430.488281 458.992188 426.621094 460.683594 C 422.410156 462.527344 420.308594 465.601562 420.367188 469.828125 C 420.414062 473.078125 421.71875 476.617188 423.230469 480.714844 C 424.847656 485.101562 426.644531 489.980469 427.171875 495.292969 L 351.457031 495.292969 C 352.058594 493.242188 352.898438 490.839844 353.816406 488.21875 C 357.71875 477.046875 363.621094 460.160156 362.296875 439.039062 C 362.242188 438.132812 361.777344 437.300781 361.039062 436.769531 C 337.300781 419.789062 327.25 387.570312 336.601562 358.425781 C 345.386719 331.046875 368.359375 314.703125 398.0625 314.703125 C 419.253906 314.703125 435.632812 320.820312 446.738281 332.882812 C 458.285156 345.425781 463.414062 363.832031 461.570312 386.113281 C 461.5625 386.195312 461.5625 386.277344 461.5625 386.363281 C 461.5625 393.222656 465.179688 397.785156 469.011719 402.621094 C 472.246094 406.699219 475.574219 410.894531 477.257812 417.082031 Z M 449.828125 362.554688 C 450.46875 361.042969 450.820312 359.378906 450.820312 357.636719 C 450.820312 350.636719 445.128906 344.945312 438.132812 344.945312 C 438.089844 344.945312 438.042969 344.945312 438 344.945312 C 434.855469 336.46875 426.6875 330.410156 417.128906 330.410156 C 413.078125 330.410156 409.273438 331.5 406 333.398438 C 402.808594 329.542969 398.039062 327.246094 392.921875 327.246094 C 386.898438 327.246094 381.355469 330.488281 378.328125 335.550781 C 377.289062 335.292969 376.214844 335.160156 375.140625 335.160156 C 367.8125 335.160156 361.851562 341.125 361.851562 348.453125 C 361.851562 348.621094 361.855469 348.789062 361.859375 348.957031 C 357.734375 350.304688 354.746094 354.1875 354.746094 358.757812 C 354.746094 359.054688 354.757812 359.355469 354.785156 359.652344 C 349.621094 362.152344 346.214844 367.433594 346.214844 373.339844 C 346.214844 378.203125 348.511719 382.539062 352.074219 385.328125 C 351.210938 387.023438 350.753906 388.910156 350.753906 390.863281 C 350.753906 395.589844 353.484375 399.773438 357.519531 401.796875 C 354.648438 408.664062 354.277344 415.789062 354.277344 420.8125 C 354.277344 422.484375 355.632812 423.835938 357.300781 423.835938 L 367.550781 423.835938 C 369.21875 423.835938 370.574219 422.484375 370.574219 420.8125 C 370.574219 413.988281 373.855469 412.988281 379.296875 411.335938 C 381.785156 410.578125 384.523438 409.742188 387.015625 408.167969 L 410.058594 431.210938 C 410.625 431.777344 411.394531 432.097656 412.195312 432.097656 C 412.996094 432.097656 413.765625 431.777344 414.332031 431.210938 L 440.957031 404.585938 C 445.496094 400.046875 447.359375 393.828125 446.542969 387.914062 C 450.316406 383.808594 452.378906 378.535156 452.378906 372.902344 C 452.378906 369.277344 451.5 365.734375 449.828125 362.554688 Z M 436.683594 400.308594 L 412.195312 424.800781 L 387.707031 400.3125 C 382.363281 394.96875 382.363281 386.277344 387.707031 380.933594 C 390.28125 378.359375 393.722656 376.941406 397.394531 376.941406 C 401.066406 376.941406 404.507812 378.359375 407.082031 380.933594 L 410.058594 383.910156 C 411.238281 385.089844 413.152344 385.089844 414.332031 383.910156 L 417.308594 380.933594 C 419.878906 378.363281 423.316406 376.945312 426.988281 376.941406 C 426.992188 376.941406 426.996094 376.941406 427 376.941406 C 430.667969 376.941406 434.109375 378.359375 436.683594 380.933594 C 442.027344 386.277344 442.027344 394.96875 436.683594 400.308594 Z M 440.957031 376.660156 C 438.441406 374.144531 435.355469 372.394531 431.980469 371.527344 C 431.015625 366.390625 426.5 362.488281 421.085938 362.488281 C 419.414062 362.488281 418.0625 363.839844 418.0625 365.511719 C 418.0625 367.179688 419.414062 368.53125 421.085938 368.53125 C 422.910156 368.53125 424.507812 369.511719 425.394531 370.964844 C 420.710938 371.339844 416.371094 373.324219 413.035156 376.660156 L 412.195312 377.5 L 411.355469 376.660156 C 407.640625 372.945312 402.679688 370.898438 397.394531 370.898438 C 392.105469 370.898438 387.148438 372.945312 383.433594 376.660156 C 376.015625 384.074219 375.746094 395.96875 382.617188 403.714844 C 381.078125 404.472656 379.339844 405.003906 377.535156 405.550781 C 372.296875 407.144531 365.902344 409.089844 364.71875 417.789062 L 360.382812 417.789062 C 360.582031 412.925781 361.40625 406.832031 364.394531 401.441406 C 364.878906 400.566406 364.902344 399.507812 364.449219 398.617188 C 364 397.722656 363.136719 397.109375 362.148438 396.980469 C 359.097656 396.578125 356.796875 393.945312 356.796875 390.863281 C 356.796875 389.863281 357.035156 388.894531 357.484375 388.03125 C 358.742188 388.367188 360.0625 388.546875 361.425781 388.546875 C 369.8125 388.546875 376.636719 381.726562 376.636719 373.339844 C 376.636719 371.667969 375.28125 370.316406 373.613281 370.316406 C 371.945312 370.316406 370.589844 371.667969 370.589844 373.339844 C 370.589844 378.390625 366.476562 382.503906 361.425781 382.503906 C 356.371094 382.503906 352.257812 378.390625 352.257812 373.339844 C 352.257812 369.171875 355.066406 365.527344 359.089844 364.472656 C 359.933594 364.25 360.644531 363.671875 361.03125 362.890625 C 361.417969 362.109375 361.449219 361.195312 361.113281 360.390625 C 360.898438 359.871094 360.789062 359.320312 360.789062 358.753906 C 360.789062 356.964844 361.898438 355.429688 363.46875 354.800781 C 365.722656 358.929688 370.109375 361.742188 375.140625 361.742188 C 376.808594 361.742188 378.164062 360.386719 378.164062 358.71875 C 378.164062 357.050781 376.808594 355.695312 375.140625 355.695312 C 371.144531 355.695312 367.894531 352.445312 367.894531 348.449219 C 367.894531 344.457031 371.144531 341.203125 375.140625 341.203125 C 376.3125 341.203125 377.429688 341.476562 378.460938 342.007812 C 379.230469 342.40625 380.128906 342.457031 380.9375 342.144531 C 381.742188 341.835938 382.378906 341.195312 382.683594 340.386719 C 384.273438 336.144531 388.386719 333.292969 392.921875 333.292969 C 396.152344 333.292969 399.171875 334.714844 401.226562 337.113281 C 397.300781 341.125 394.878906 346.617188 394.878906 352.660156 C 394.878906 354.328125 396.230469 355.683594 397.898438 355.683594 C 399.570312 355.683594 400.921875 354.328125 400.921875 352.660156 C 400.921875 343.722656 408.191406 336.453125 417.128906 336.453125 C 426.066406 336.453125 433.335938 343.722656 433.335938 352.660156 C 433.335938 354.003906 433.167969 355.34375 432.84375 356.632812 C 432.4375 358.253906 433.417969 359.894531 435.039062 360.304688 C 436.65625 360.710938 438.300781 359.730469 438.707031 358.109375 C 439.152344 356.335938 439.378906 354.503906 439.378906 352.660156 C 439.378906 352.132812 439.363281 351.613281 439.324219 351.097656 C 442.421875 351.660156 444.777344 354.378906 444.777344 357.636719 C 444.777344 361.300781 441.796875 364.28125 438.132812 364.28125 C 436.464844 364.28125 435.109375 365.632812 435.109375 367.300781 C 435.109375 368.972656 436.464844 370.324219 438.132812 370.324219 C 440.902344 370.324219 443.464844 369.433594 445.554688 367.921875 C 446.066406 369.519531 446.332031 371.199219 446.332031 372.902344 C 446.332031 375.777344 445.59375 378.527344 444.203125 380.945312 C 443.339844 379.410156 442.261719 377.964844 440.957031 376.660156 Z M 440.957031 376.660156 " fill-opacity="1" fill-rule="nonzero"/></g></svg>