<svg xmlns="http://www.w3.org/2000/svg" xmlns:xlink="http://www.w3.org/1999/xlink" width="1080" zoomAndPan="magnify" viewBox="0 0 810 809.999993" height="1080" preserveAspectRatio="xMidYMid meet" version="1.0"><defs><clipPath id="661503d36a"><path d="M 428 314 L 496.1875 314 L 496.1875 423 L 428 423 Z M 428 314 " clip-rule="nonzero"/></clipPath><clipPath id="bb6ee681df"><path d="M 334 347 L 404 347 L 404 495.960938 L 334 495.960938 Z M 334 347 " clip-rule="nonzero"/></clipPath><clipPath id="388a52ff58"><path d="M 406 347 L 476 347 L 476 495.960938 L 406 495.960938 Z M 406 347 " clip-rule="nonzero"/></clipPath></defs><path fill="#eac607" d="M 344.84375 315.890625 C 351.566406 313.710938 359.019531 314.21875 365.488281 316.910156 C 371.375 319.199219 376.609375 323.523438 379.445312 329.265625 C 383.40625 337.191406 382.828125 346.75 379.300781 354.710938 C 376.71875 353.546875 374.140625 352.386719 371.558594 351.222656 C 373.703125 346.167969 374.464844 340.316406 372.648438 335.046875 C 371.484375 331.410156 368.867188 328.324219 365.597656 326.394531 C 360.289062 323.195312 353.636719 322.105469 347.675781 323.925781 C 341.0625 325.851562 335.644531 330.613281 331.683594 336.136719 C 325.140625 345.332031 322.234375 356.890625 323.070312 368.085938 C 323.90625 380.265625 327.867188 392.40625 335.210938 402.253906 C 339.0625 407.269531 344.1875 411.921875 350.550781 413.230469 C 355.601562 414.359375 360.835938 412.652344 365.015625 409.886719 C 368.796875 407.417969 371.703125 403.417969 372.320312 398.910156 C 372.902344 395.058594 371.738281 390.949219 369.050781 388.117188 C 371.085938 386.953125 373.339844 385.824219 375.773438 385.898438 C 376.71875 385.972656 377.808594 386.226562 378.355469 387.097656 C 380.28125 389.824219 380.828125 393.242188 380.972656 396.476562 C 381.15625 403.164062 378.136719 409.742188 373.230469 414.214844 C 368.652344 418.394531 362.726562 421.121094 356.582031 421.957031 C 350.039062 422.753906 343.386719 420.574219 338.082031 416.792969 C 332.738281 413.050781 328.449219 407.960938 325.070312 402.398438 C 318.5625 391.675781 314.964844 379.210938 314.453125 366.667969 C 313.984375 354.601562 317.21875 342.316406 324.015625 332.285156 C 328.996094 324.871094 336.15625 318.507812 344.84375 315.890625 Z M 344.84375 315.890625 " fill-opacity="1" fill-rule="nonzero"/><g clip-path="url(#661503d36a)"><path fill="#eac607" d="M 439.964844 319.417969 C 445.78125 315.820312 452.761719 313.964844 459.59375 314.65625 C 465.664062 315.238281 471.480469 317.78125 476.316406 321.453125 C 482.492188 326.140625 487.253906 332.574219 490.5625 339.589844 C 494.160156 347.261719 496.015625 355.730469 496.015625 364.199219 C 496.015625 372.632812 494.488281 381.027344 491.726562 388.988281 C 489.546875 395.277344 486.492188 401.308594 482.53125 406.726562 C 478.859375 411.667969 474.351562 416.105469 468.863281 418.976562 C 463.628906 421.773438 457.414062 422.9375 451.5625 421.628906 C 445.855469 420.355469 440.402344 417.558594 436.257812 413.378906 C 431.570312 408.652344 428.917969 401.890625 429.496094 395.238281 C 429.789062 392.257812 430.40625 389.132812 432.332031 386.769531 C 433.167969 386.078125 434.332031 385.824219 435.386719 385.933594 C 437.53125 386.117188 439.53125 387.0625 441.347656 388.1875 C 439.058594 390.585938 437.820312 393.894531 437.929688 397.238281 C 437.929688 402.328125 440.984375 407.089844 445.164062 409.851562 C 449.054688 412.433594 453.742188 414.140625 458.429688 413.523438 C 463.339844 412.941406 467.664062 410.140625 471.1875 406.796875 C 475.660156 402.398438 479.078125 397.019531 481.621094 391.3125 C 484.894531 383.863281 486.890625 375.867188 487.363281 367.722656 C 487.835938 359.65625 486.566406 351.441406 483.222656 344.0625 C 480.132812 337.082031 475.296875 330.648438 468.71875 326.578125 C 463.992188 323.667969 458.214844 322.324219 452.6875 323.414062 C 447.054688 324.46875 441.457031 327.523438 438.695312 332.71875 C 435.640625 338.425781 436.296875 345.441406 438.765625 351.222656 C 436.1875 352.386719 433.605469 353.546875 431.023438 354.746094 C 428.042969 347.839844 427.136719 339.808594 429.570312 332.574219 C 431.386719 327.121094 435.167969 322.433594 439.964844 319.417969 Z M 439.964844 319.417969 " fill-opacity="1" fill-rule="nonzero"/></g><path fill="#eac607" d="M 379.738281 462.339844 C 396.710938 462.339844 413.6875 462.339844 430.660156 462.339844 C 430.117188 465.5 428.335938 468.371094 425.753906 470.261719 C 421.972656 473.171875 417.320312 474.734375 412.667969 475.605469 C 409.941406 476.078125 407.289062 477.058594 405.179688 478.949219 C 402.5625 476.476562 398.929688 475.859375 395.546875 475.167969 C 390.96875 474.007812 386.316406 472.226562 382.933594 468.773438 C 381.261719 467.0625 380.210938 464.738281 379.738281 462.339844 Z M 379.738281 462.339844 " fill-opacity="1" fill-rule="nonzero"/><path fill="#eac607" d="M 349.605469 345.953125 C 348.878906 344.316406 350.148438 342.28125 351.929688 342.171875 C 353.382812 341.953125 354.65625 343.078125 355.09375 344.386719 C 356.691406 348.277344 359.964844 351.183594 363.488281 353.367188 C 367.742188 355.945312 372.394531 357.726562 376.867188 359.871094 C 377.882812 360.527344 379.117188 360.054688 380.210938 359.726562 C 382.136719 359.035156 384.027344 357.726562 384.679688 355.691406 C 385.007812 354.457031 386.132812 353.511719 387.441406 353.511719 C 389.1875 353.4375 390.640625 355.292969 390.207031 357 C 389.476562 360.019531 387.222656 362.417969 384.609375 363.945312 C 388.75 366.632812 392.496094 370.050781 395.074219 374.265625 C 399.472656 381.28125 400.78125 389.714844 400.929688 397.894531 C 400.929688 412.6875 400.929688 427.480469 400.929688 442.273438 C 403.761719 442.273438 406.632812 442.238281 409.46875 442.273438 C 409.433594 427.699219 409.433594 413.160156 409.46875 398.621094 C 409.507812 390.476562 410.707031 382.046875 414.886719 374.957031 C 417.503906 370.449219 421.390625 366.742188 425.789062 363.980469 C 423.210938 362.378906 420.917969 360.019531 420.191406 357 C 419.792969 355.4375 420.957031 353.765625 422.554688 353.546875 C 423.863281 353.292969 425.207031 354.164062 425.609375 355.4375 C 426.445312 358.089844 429.171875 359.691406 431.789062 360.089844 C 432.734375 360.382812 433.605469 359.761719 434.441406 359.398438 C 438.765625 357.363281 443.238281 355.582031 447.308594 353.039062 C 450.507812 351.039062 453.453125 348.351562 455.015625 344.859375 C 455.449219 343.84375 455.960938 342.679688 457.121094 342.316406 C 459.15625 341.445312 461.59375 343.660156 460.832031 345.769531 C 459.011719 350.566406 455.488281 354.636719 451.160156 357.363281 C 447.125 360.089844 442.582031 361.835938 438.183594 363.945312 C 431.96875 366.707031 425.679688 370.050781 421.5 375.613281 C 416.558594 382.191406 415.066406 390.625 415.066406 398.691406 C 415.03125 414.214844 415.066406 429.734375 415.03125 445.21875 C 415.066406 446.710938 413.722656 448.019531 412.230469 447.980469 C 407.617188 448.019531 402.964844 448.019531 398.3125 447.980469 C 397.039062 448.054688 395.765625 447.328125 395.332031 446.128906 C 395.113281 445.363281 395.183594 444.527344 395.148438 443.726562 C 395.148438 430.132812 395.148438 416.503906 395.148438 402.910156 C 395.183594 398.183594 395.148438 393.386719 394.277344 388.734375 C 393.292969 383.789062 391.441406 378.957031 388.242188 375.03125 C 384.027344 369.6875 377.847656 366.488281 371.738281 363.796875 C 367.558594 361.800781 363.160156 360.089844 359.273438 357.472656 C 355.054688 354.785156 351.457031 350.75 349.605469 345.953125 Z M 349.605469 345.953125 " fill-opacity="1" fill-rule="nonzero"/><g clip-path="url(#bb6ee681df)"><path fill="#eac607" d="M 335.101562 351.585938 C 333.902344 349.804688 335.609375 347.1875 337.683594 347.332031 C 339.355469 347.367188 340.152344 349.003906 341.0625 350.132812 C 344.878906 355.183594 350.113281 359.035156 355.890625 361.617188 C 361.308594 364.015625 367.050781 365.652344 372.394531 368.234375 C 377.992188 370.886719 383.445312 374.375 387.007812 379.574219 C 390.933594 385.0625 392.386719 391.933594 392.457031 398.582031 C 392.457031 414.324219 392.457031 430.097656 392.457031 445.835938 C 392.566406 447.21875 391.550781 448.527344 390.242188 448.816406 C 385.953125 449.617188 381.480469 450.632812 377.882812 453.25 C 375.738281 454.777344 374.210938 457.175781 374.066406 459.832031 C 373.703125 465.28125 376.320312 470.699219 380.464844 474.152344 C 384.5 477.570312 389.515625 479.53125 394.601562 480.765625 C 396.273438 481.203125 398.019531 481.347656 399.621094 482.003906 C 402.128906 483.058594 403.835938 485.710938 403.835938 488.402344 C 403.835938 490.074219 403.871094 491.746094 403.835938 493.417969 C 403.871094 494.90625 402.492188 496.253906 401 496.214844 C 399.621094 496.214844 398.382812 495.125 398.203125 493.78125 C 398.054688 491.890625 398.3125 489.964844 398.09375 488.074219 C 397.875 487.203125 396.820312 487.09375 396.09375 486.910156 C 390.96875 485.929688 385.953125 484.328125 381.445312 481.75 C 376.320312 478.839844 371.921875 474.40625 369.886719 468.808594 C 368.359375 464.703125 367.707031 460.050781 369.160156 455.832031 C 370.359375 452.308594 373.046875 449.472656 376.210938 447.617188 C 379.480469 445.65625 383.152344 444.527344 386.859375 443.726562 C 386.824219 428.789062 386.859375 413.886719 386.824219 398.945312 C 386.824219 393.496094 385.808594 387.789062 382.679688 383.207031 C 380.027344 380.191406 375.519531 379.609375 371.847656 380.738281 C 367.597656 382.007812 363.742188 384.589844 360.835938 387.898438 C 359.816406 388.988281 359.308594 390.734375 357.710938 391.097656 C 355.746094 391.640625 353.675781 389.605469 354.292969 387.644531 C 354.839844 386.117188 355.964844 384.878906 356.984375 383.679688 C 361.125 379.171875 366.652344 375.867188 372.683594 374.703125 C 368.542969 372.265625 363.488281 372.886719 358.945312 373.613281 C 353.273438 374.738281 347.605469 376.59375 342.808594 379.863281 C 341.570312 380.664062 340.515625 382.152344 338.84375 381.898438 C 336.84375 381.683594 335.644531 379.101562 336.882812 377.464844 C 338.007812 376.191406 339.425781 375.285156 340.84375 374.375 C 345.714844 371.324219 351.238281 369.503906 356.800781 368.160156 C 350.402344 365.6875 344.261719 362.125 339.609375 357.039062 C 337.898438 355.367188 336.480469 353.511719 335.101562 351.585938 Z M 335.101562 351.585938 " fill-opacity="1" fill-rule="nonzero"/></g><g clip-path="url(#388a52ff58)"><path fill="#eac607" d="M 470.570312 348.566406 C 471.371094 347.40625 473.042969 346.933594 474.242188 347.730469 C 475.660156 348.460938 476.167969 350.496094 475.222656 351.765625 C 473.261719 354.53125 471.082031 357.109375 468.535156 359.363281 C 464.246094 363.324219 458.976562 366.089844 453.558594 368.195312 C 459.667969 369.542969 465.699219 371.648438 470.898438 375.210938 C 471.953125 376.011719 473.1875 376.703125 473.84375 377.902344 C 474.640625 379.539062 473.441406 381.683594 471.660156 381.863281 C 470.097656 382.117188 469.007812 380.808594 467.882812 380.007812 C 464.464844 377.539062 460.464844 375.976562 456.433594 374.738281 C 452.144531 373.539062 447.671875 372.703125 443.199219 372.996094 C 441.273438 373.105469 439.421875 373.757812 437.75 374.703125 C 444.402344 375.867188 450.433594 379.753906 454.613281 384.988281 C 455.414062 386.078125 456.433594 387.242188 456.25 388.695312 C 456.070312 390.367188 454.140625 391.605469 452.542969 390.988281 C 451.015625 390.476562 450.578125 388.734375 449.527344 387.679688 C 446.183594 384.042969 441.785156 381.171875 436.875 380.335938 C 433.132812 379.71875 428.589844 381.101562 426.878906 384.734375 C 424.445312 389.167969 423.683594 394.292969 423.683594 399.273438 C 423.683594 414.066406 423.683594 428.898438 423.644531 443.691406 C 428.808594 444.820312 434.113281 446.5625 437.929688 450.378906 C 440.585938 452.996094 442.109375 456.632812 442.148438 460.375 C 442.21875 467.320312 438.949219 474.152344 433.640625 478.550781 C 428.117188 483.128906 421.136719 485.636719 414.160156 486.945312 C 413.46875 487.054688 412.523438 487.273438 412.414062 488.109375 C 412.230469 489.890625 412.449219 491.671875 412.378906 493.453125 C 412.378906 494.945312 411.03125 496.289062 409.542969 496.253906 C 408.050781 496.289062 406.707031 494.945312 406.707031 493.488281 C 406.632812 491.816406 406.707031 490.144531 406.707031 488.472656 C 406.707031 486.183594 407.871094 483.929688 409.761719 482.695312 C 411.433594 481.53125 413.539062 481.421875 415.429688 480.949219 C 420.957031 479.640625 426.515625 477.496094 430.769531 473.570312 C 434.476562 470.152344 436.695312 465.136719 436.476562 460.085938 C 436.332031 457.46875 434.914062 454.960938 432.804688 453.433594 C 429.28125 450.78125 424.84375 449.726562 420.554688 448.960938 C 419.101562 448.746094 417.902344 447.398438 418.011719 445.910156 C 418.046875 430.171875 418.011719 414.433594 418.046875 398.65625 C 418.085938 391.496094 419.828125 384.082031 424.410156 378.410156 C 428.445312 373.210938 434.367188 369.941406 440.292969 367.289062 C 447.019531 364.308594 454.359375 362.5625 460.539062 358.417969 C 464.464844 355.839844 467.773438 352.386719 470.570312 348.566406 Z M 470.570312 348.566406 " fill-opacity="1" fill-rule="nonzero"/></g></svg>